<svg width="173" height="62" viewBox="0 0 173 62" fill="none" xmlns="http://www.w3.org/2000/svg">
<path d="M24.725 50.924H22.307V40.849H24.725C25.8203 40.849 26.802 41.1383 27.67 41.717C28.538 42.275 28.972 43.2257 28.972 44.569V46.739C28.972 47.8757 28.631 48.8573 27.949 49.684C27.267 50.5107 26.1923 50.924 24.725 50.924ZM28.538 29.968V30.743C28.538 32.107 28.2177 33.2643 27.577 34.215C26.9363 35.145 26.0167 35.61 24.818 35.61H22.307V26.651H24.57C25.8513 26.651 26.833 26.899 27.515 27.395C28.197 27.8703 28.538 28.728 28.538 29.968ZM26.833 57.279C29.0857 57.279 31.049 57 32.723 56.442C34.397 55.884 35.7197 55.109 36.691 54.117C37.683 53.1043 38.4167 51.9573 38.892 50.676C39.3673 49.374 39.605 47.9273 39.605 46.336C39.605 41.0453 37.1663 38.183 32.289 37.749C34.211 37.3563 35.6783 36.3747 36.691 34.804C37.7037 33.2333 38.21 31.3527 38.21 29.162C38.21 27.736 38.0033 26.5063 37.59 25.473C37.1973 24.4397 36.5257 23.5303 35.575 22.745C34.6243 21.9597 33.312 21.3707 31.638 20.978C29.9847 20.5853 27.949 20.389 25.531 20.389C24.787 20.389 23.578 20.4407 21.904 20.544C20.23 20.6267 18.742 20.668 17.44 20.668H12.077V57H15.053C16.169 57.0207 18.0083 57.0723 20.571 57.155C23.1337 57.2377 25.221 57.279 26.833 57.279ZM52.8558 57V42.833C53.4551 41.717 54.8088 41.159 56.9168 41.159C58.3841 41.159 59.3348 41.3553 59.7688 41.748L60.8228 30.712C60.2648 30.526 59.7275 30.433 59.2108 30.433C54.6228 30.433 51.9051 32.9647 51.0578 38.028L50.1588 30.65H47.6478L40.9828 32.293V35.796L42.8428 36.943V57H52.8558ZM78.4364 52.877L79.3974 57H87.9844V30.65H76.1734V34.215L77.8474 35.331V49.901C77.7854 49.9423 77.6924 50.0147 77.5684 50.118C77.465 50.2007 77.3824 50.2627 77.3204 50.304C77.279 50.3453 77.2067 50.4073 77.1034 50.49C77 50.552 76.9174 50.6037 76.8554 50.645C76.7934 50.6863 76.7107 50.738 76.6074 50.8C76.504 50.8413 76.411 50.8723 76.3284 50.893C76.2664 50.9137 76.1837 50.9447 76.0804 50.986C75.977 51.0067 75.8737 51.0273 75.7704 51.048C75.667 51.048 75.5534 51.048 75.4294 51.048C74.5614 51.048 73.962 50.831 73.6314 50.397C73.3007 49.9423 73.1457 49.25 73.1664 48.32V30.65H61.9134V34.215L62.9984 35.331V46.367C62.9984 50.4177 63.6184 53.311 64.8584 55.047C66.119 56.783 68.2064 57.651 71.1204 57.651C72.0504 57.651 72.97 57.4443 73.8794 57.031C74.7887 56.6383 75.5534 56.163 76.1734 55.605C76.7934 55.0263 77.2894 54.4993 77.6614 54.024C78.054 53.5487 78.3124 53.1663 78.4364 52.877ZM102.262 57V38.927C102.303 38.8857 102.376 38.8237 102.479 38.741C102.603 38.6377 102.686 38.5653 102.727 38.524C102.789 38.4827 102.872 38.4207 102.975 38.338C103.099 38.2347 103.192 38.1623 103.254 38.121C103.316 38.0797 103.399 38.028 103.502 37.966C103.605 37.8833 103.698 37.8317 103.781 37.811C103.864 37.7697 103.957 37.7283 104.06 37.687C104.184 37.625 104.287 37.5837 104.37 37.563C104.473 37.5423 104.577 37.5217 104.68 37.501C104.804 37.4803 104.928 37.47 105.052 37.47C106.767 37.47 107.594 38.4413 107.532 40.384V57H117.762V42.182C117.762 41.0247 117.731 39.95 117.669 38.958C118.702 37.966 119.519 37.47 120.118 37.47C121.007 37.47 121.668 37.7283 122.102 38.245C122.536 38.7617 122.753 39.4747 122.753 40.384V57H132.828V41.283C132.828 38.3483 132.58 36.075 132.084 34.463C131.588 32.851 130.792 31.7143 129.697 31.053C128.622 30.371 127.114 30.03 125.171 30.03C123.414 30.03 121.802 30.5673 120.335 31.642C118.888 32.696 117.814 33.8327 117.111 35.052C116.656 33.2747 115.881 31.9933 114.786 31.208C113.691 30.4227 112.11 30.03 110.043 30.03C109.237 30.03 108.421 30.1953 107.594 30.526C106.788 30.836 106.096 31.1873 105.517 31.58C104.959 31.9727 104.411 32.4273 103.874 32.944C103.337 33.4607 102.965 33.843 102.758 34.091C102.572 34.3183 102.427 34.5043 102.324 34.649V30.65H97.0541L90.3891 32.479V35.796L92.2491 36.943V57H102.262ZM150.67 40.973H145.958V38.369C145.958 37.625 145.979 37.0153 146.02 36.54C146.082 36.044 146.206 35.5687 146.392 35.114C146.578 34.6387 146.867 34.2977 147.26 34.091C147.653 33.8637 148.159 33.75 148.779 33.75C149.502 33.75 149.998 34.2977 150.267 35.393C150.536 36.4883 150.67 38.3483 150.67 40.973ZM148.19 57.651C149.43 57.651 150.732 57.5063 152.096 57.217C153.46 56.9277 154.876 56.3697 156.343 55.543C157.831 54.6957 158.957 53.652 159.722 52.412L157.893 49.281C157.314 49.8183 156.591 50.2833 155.723 50.676C154.876 51.0687 154.028 51.358 153.181 51.544C152.354 51.73 151.579 51.823 150.856 51.823C150.112 51.823 149.482 51.761 148.965 51.637C148.448 51.513 147.942 51.265 147.446 50.893C146.95 50.521 146.568 49.9423 146.299 49.157C146.051 48.3717 145.927 47.3693 145.927 46.15V45.561H160.094V42.12C160.094 37.8833 159.216 34.8143 157.459 32.913C155.702 30.991 152.788 30.03 148.717 30.03C144.48 30.03 141.184 31.2183 138.828 33.595C136.472 35.9717 135.294 39.4747 135.294 44.104C135.294 46.0467 135.521 47.8137 135.976 49.405C136.431 50.9757 137.144 52.3913 138.115 53.652C139.107 54.9127 140.45 55.8943 142.145 56.597C143.86 57.2997 145.875 57.651 148.19 57.651Z" fill="#262626"/>
<path d="M5.13333 59C5.13333 57.8218 4.1782 56.8667 3 56.8667C1.82179 56.8667 0.866664 57.8218 0.866664 59C0.866664 60.1782 1.82179 61.1333 3 61.1333C4.1782 61.1333 5.13333 60.1782 5.13333 59ZM92 58.6L3 58.6V59.4L92 59.4V58.6Z" fill="#262626"/>
<path d="M167.867 59C167.867 60.1782 168.822 61.1333 170 61.1333C171.178 61.1333 172.133 60.1782 172.133 59C172.133 57.8218 171.178 56.8667 170 56.8667C168.822 56.8667 167.867 57.8218 167.867 59ZM133 59.4L170 59.4L170 58.6L133 58.6L133 59.4Z" fill="#262626"/>
</svg>
